<?xml version="1.0" encoding="utf-8"?>
<!-- Generator: Adobe Illustrator 24.0.1, SVG Export Plug-In . SVG Version: 6.00 Build 0)  -->
<svg version="1.1" id="图层_1" xmlns="http://www.w3.org/2000/svg" xmlns:xlink="http://www.w3.org/1999/xlink" x="0px" y="0px"
	 viewBox="0 0 222 222" style="enable-background:new 0 0 222 222;" xml:space="preserve">
<style type="text/css">
	.st0{fill:#FFFFFF;}
</style>
<path class="st0" d="M193.5,129.5c-0.4,0-0.9,0-1.5-0.1c-6.4-0.7-11-6.5-10.3-12.9l7-57.9c0.4-3.7-1.8-7.3-5.2-8.5l-47.2-16.8
	c-6.1-2.2-9.2-8.8-7.1-14.9c2.2-6.1,8.8-9.2,14.9-7.1L191.2,28c14,4.9,22.5,18.6,20.7,33.3l-7,57.9
	C204.3,125,199.3,129.5,193.5,129.5z"/>
<path class="st0" d="M108,222.2c-5.2,0-10.4-1.3-15.3-4l-61-33.9c-8.8-4.9-14.7-13.7-15.9-23.7L3.4,60c-1.8-14.7,7-28.7,21-33.6
	L99.8,0.6c6.1-2.1,12.8,1.2,14.9,7.3c2.1,6.1-1.2,12.8-7.3,14.9L31.9,48.5c-3.6,1.2-5.8,4.8-5.4,8.6l12.4,100.6
	c0.3,2.5,1.8,4.8,4,6.1l61,33.9c2.4,1.3,5.4,1.3,7.7,0l66.1-36.2c2.2-1.2,3.9-3.6,4.2-6.1c0.7-6.4,6.5-11,12.9-10.3
	c6.4,0.7,11,6.5,10.3,12.9c-1.2,10-7.3,18.9-16.1,23.8L123,218.2C118.4,220.9,113.2,222.2,108,222.2z"/>
<g>
	<path class="st0" d="M159.9,49.8v30.5c-4.1-0.9-6.9-1.3-8.4-1.3c-4.3,0-8,0.8-11.1,2.3c-3.2,1.5-4.7,3.7-4.7,6.5
		c0,2.6,1.6,5.4,4.7,8.5l4.2,4.2c7.6,7.7,11.4,15.2,11.4,22.5c0,9.5-6.4,17.8-19.1,24.9c-12.7,7.1-28.5,10.7-47.5,10.7
		c-9.5,0-18.2-1-26.2-3v-30.8c5,1.8,10,2.7,15,2.7c4.6,0,8.4-0.8,11.4-2.3c3-1.5,4.5-3.5,4.5-6c0-1.2-2.6-4.4-7.8-9.6
		c-8.2-8.4-12.3-16.8-12.3-25.1c0-10,6.2-18.6,18.7-25.9c12.4-7.2,27.3-10.9,44.6-10.9C145.1,47.7,152.6,48.4,159.9,49.8z"/>
</g>
</svg>
