<?xml version="1.0" encoding="utf-8"?>
<!-- Generator: Adobe Illustrator 24.0.1, SVG Export Plug-In . SVG Version: 6.00 Build 0)  -->
<svg version="1.1" id="图层_1" xmlns="http://www.w3.org/2000/svg" xmlns:xlink="http://www.w3.org/1999/xlink" x="0px" y="0px"
	 viewBox="0 0 552 222" style="enable-background:new 0 0 552 222;" xml:space="preserve">
<style type="text/css">
	.st0{fill:#FFFFFF;}
</style>
<g>
	<path class="st0" d="M104.6,137.8c-4.8-8.8-15.1-14.5-31-17.2c-9.1-1.6-17.4-4-25-7.1c-7.6-3.1-12.3-5.7-14-7.7
		c-1.7-2-2.6-4.1-2.6-6.2c0-9.7,2.3-18.5,7-26.3c4.7-7.8,14.1-13.9,28.2-18.2c14.1-4.3,29.5-6.5,46-6.5c6.9,0,12.4,0.5,16.5,1.5
		c4.1,1,6.8,2.1,8.2,3.2c1.4,1.1,2.1,2.8,2.1,4.9c0,4-0.6,7.4-1.7,10.1c-1.1,2.7-2.5,4.6-4,5.5c-1.5,0.9-4.4,2.2-8.7,3.8
		c-4,1.3-7,2.5-8.9,3.4c-1.9,0.9-5.1,2.8-9.5,5.6c-1.9,1.2-3.2,1.9-4,2.2c-0.7,0-1-0.3-1-0.8c0-1.2,1.1-2.8,3.2-4.9
		c2.1-2.1,5.1-4.1,8.8-6.1c3.6-1.9,5.4-3.1,5.4-3.8c0-0.7-2.5-1-7.4-1c-17.7,0-33,2.3-45.8,7C53.6,83.9,47.2,89,47.2,94.6
		c0,1.1,0.4,2.1,1.1,3.1c0.7,1,1.6,1.6,2.5,1.9l22.4,6.6c7.5,2.1,14.2,4.6,20.2,7.4c6,2.8,10.7,5.6,14.2,8.4
		c3.5,2.8,5.9,5.6,7.4,8.3c1.5,2.7,2.2,5.6,2.2,8.7c0,5.7-2.3,11.8-6.9,18.2c-4.6,6.4-13.7,11.4-27.2,14.9
		c-13.5,3.5-27.4,5.3-41.7,5.3c-11.7,0-20.9-1.1-27.5-3.4c-6.6-2.3-9.9-5.5-9.9-9.6c0-4,1.9-8.2,5.7-12.6c3.8-4.4,8.2-6.6,13.3-6.6
		c3.3,0,5,0.3,5,1c0,0.3-0.8,0.7-2.4,1.2c-2.3,0.9-3.7,1.6-4.4,1.9c-0.7,0.3-1,0.8-1,1.5c0,1.3,5.8,2,17.4,2
		c15.1,0,26.2-0.5,33.4-1.4c7.2-0.9,13.5-2.5,18.9-4.8C95.3,144.3,100.2,141.4,104.6,137.8z"/>
	<path class="st0" d="M195.6,135v6.6c-3.6,3.5-6.9,6-9.9,7.5c-3,1.5-6.9,2.2-11.7,1.9c-8.4,10-15.9,15-22.4,15
		c-5.5,0-10.1-2.6-14-7.9c-3.9-5.3-5.8-11.8-5.8-19.5c0-5.7,2.3-12,7-18.9c4.7-6.9,10.6-12.6,17.7-17.2c7.1-4.6,13.4-6.9,18.9-6.9
		c2.5,0,4.7,0.5,6.5,1.5c1.8,1,2.7,2.3,2.7,3.9c0,1.5-0.7,3-2.2,4.6c2.7,0.7,4.4,1.6,5.2,2.9c0.8,1.3,1.2,3.2,1.2,5.9
		c0,7.7-2.7,16.3-8.2,25.6c0.4,0.3,0.8,0.6,1.1,0.9c0.3,0.3,0.6,0.6,0.7,0.7c0.1,0.1,0.1,0.2,0,0.2
		C184.8,142.5,189.2,140.2,195.6,135z M175.4,109.4c-6.3,3.6-12.5,7.7-18.6,12.2c-6.1,4.5-9.8,9.4-11,14.7c-1.2,5.3-1.8,8.6-1.8,9.9
		c0,1.7,0.7,3.2,2.1,4.5c1.4,1.3,3.2,1.9,5.5,1.9c4.5,0,9.7-2.4,15.4-7.2c-1.2-2.7-1.8-5.5-1.8-8.4
		C165.2,130.3,168.6,121.1,175.4,109.4z"/>
	<path class="st0" d="M362.6,134.8v6.8C340.2,162.5,324.7,173,316,173c-4.8,0-8.7-1.8-11.8-5.3c-3.1-3.5-4.6-8.2-4.6-13.9
		c0-8.9,2.7-18.4,8.2-28.3c5.5-9.9,13.9-21.2,25.4-33.7c5.5-6,8.2-9.7,8.2-11.2c0-0.7-0.5-1-1.6-1c-1.6,0-6.6,3.7-14.9,11.2
		c-8.3,7.5-16.9,16.2-25.8,26.1c-8.9,9.9-22.6,26.5-41.3,49.7c-1.2,1.3-2.4,2-3.6,2c-1.6,0-3.1-1.6-4.5-4.9
		c-1.4-3.3-2.1-6.9-2.1-10.9c0-3.3,0.7-6.4,2-9.3c1.3-2.9,5-8.2,11-16.1c11.9-15.9,20.6-28.8,26.3-38.8c5.7-10,8.5-16.7,8.5-20.2
		c0-1.7-0.6-2.6-1.8-2.6c-2.3,0-6.9,3.4-14,10.3c-7.1,6.9-15.7,16.9-25.8,30.1c-10.1,13.2-20.4,27.9-30.8,44.2
		c-3.6,6.1-6.2,10.1-7.7,12c-1.5,1.9-3.2,2.8-4.9,2.8c-2,0-4.1-2.3-6.2-7c-2.1-4.7-3.2-8.7-3.2-12c0-0.9,0.4-2,1.2-3.2
		c32.1-42.7,48.2-69.6,48.2-80.8c0-2.8-1.3-4.2-4-4.2c-3.5,0-13.3,5-29.4,15c-15.2,9.5-24.8,14.2-28.8,14.2c-2.1,0-3.2-1.2-3.2-3.6
		c0-1.6,0.4-4.8,1.3-9.5c0.9-4.7,1.8-8.1,2.8-10.1s3.1-4.4,6.2-7.2c3.1-2.8,6.2-5.2,9.2-7.1c3-1.9,4.8-2.9,5.3-2.9
		c0.3,0,0.4,0.1,0.4,0.4c0,0.5-0.4,1.1-1.2,1.6c-5.1,3.9-7.9,7.1-8.4,9.8c12.5-7.5,23.5-13,32.8-16.6c9.3-3.6,15.6-5.4,18.8-5.4
		c2.4,0,4.8,2.3,7.3,6.9c2.5,4.6,3.7,8.4,3.7,11.5c0,6.5-6.7,23.2-20.2,50c19.6-25.3,34.8-42.1,45.6-50.4
		c10.8-8.3,17.7-12.4,20.8-12.4c2.1,0,4.1,1.3,6,3.8c1.9,2.5,2.8,5.3,2.8,8.2c0,5.5-11.1,26.6-33.4,63.4
		c11.2-12.4,21.4-23.2,30.6-32.4c9.2-9.2,19-18.2,29.4-26.9c10.4-8.7,16.2-13.3,17.3-13.6c1.1-0.3,2.1-0.5,2.9-0.5
		c1.5,0,3.5,1.9,6.2,5.7c2.7,3.8,4,6.4,4,7.7c0,1.5-0.7,3.1-2.1,4.9c-1.4,1.8-4.6,5.3-9.7,10.5c-12.8,13.7-23.1,27.7-31,41.8
		c-7.9,14.1-11.8,24.9-11.8,32.4c0,3.1,0.6,5.2,1.7,6.4c1.1,1.2,2.9,1.8,5.3,1.8c2.7,0,6.3-1.3,10.9-4
		C343.1,148.7,351.1,143.2,362.6,134.8z"/>
	<path class="st0" d="M415.6,136.6c-10.3,11.5-17.6,19.2-21.9,23.2c-4.3,4-7.7,6-10.1,6c-3.1,0-6.2-3-9.5-8.9
		c-3.3-5.9-4.9-11.3-4.9-16.1c0-4.9,1.5-9.7,4.6-14.4c3.1-4.7,9.2-10.4,18.5-17.1c9.3-6.7,17.1-11.4,23.6-14.1c6.5-2.7,12-4,16.5-4
		c1.6,0,3.2,1.1,4.8,3.3c1.6,2.2,2.4,4.2,2.4,5.9c0,1.7-2,3.2-6,4.4c2.7,5.2,4,8.7,4,10.6c0,1.6-1.6,4.5-4.8,8.8
		c-3.7,4.9-6.1,8.3-7,10.1c-0.9,1.8-1.4,4-1.4,6.7c0,4.9,1.9,7.4,5.8,7.4c5.1,0,12.5-4.3,22.2-13v6c-16.4,18.3-28.2,27.4-35.4,27.4
		c-2.8,0-4.7-0.9-5.6-2.7c-0.9-1.8-1.4-4.4-1.4-7.9C410,153.4,411.9,146.2,415.6,136.6z M428.6,107c-15.1,6.8-26.7,13-34.8,18.7
		c-8.1,5.7-12.2,11.6-12.2,17.7c0,4.7,1.3,7,4,7c2.3,0,6.8-2.7,13.6-8.1C406,136.9,415.8,125.1,428.6,107z"/>
	<path class="st0" d="M493.8,134.2v7.2c-13.6,18-24.7,27-33.2,27c-4.8,0-8.5-2.6-11-7.8c-2.5-5.2-3.8-11.3-3.8-18.2
		c0-12.5,4.2-27.2,12.7-44.1c8.5-16.9,16.7-29.4,24.6-37.6c7.9-8.2,13.5-12.3,16.7-12.3c2.1,0,3.2,2.7,3.2,8c0,9.2-3.7,20.4-11,33.5
		c-7.3,13.1-17.6,26.6-30.8,40.3c-0.7,2.8-1,5.5-1,8c0,4.3,0.9,7.6,2.7,10.1c1.8,2.5,4.3,3.7,7.5,3.7c1.9,0,4-0.9,6.5-2.8
		C479.4,147.3,485,142.3,493.8,134.2z M464.6,116.6c7.7-8,14.3-16.9,19.7-26.7c5.4-9.8,8.1-16.6,8.1-20.3c0-1.2-0.5-1.8-1.6-1.8
		c-2.5,0-6.8,5.1-12.9,15.3C471.8,93.3,467.4,104.5,464.6,116.6z"/>
	<path class="st0" d="M539.6,134.2v7.2c-13.6,18-24.7,27-33.2,27c-4.8,0-8.5-2.6-11-7.8c-2.5-5.2-3.8-11.3-3.8-18.2
		c0-12.5,4.2-27.2,12.7-44.1c8.5-16.9,16.7-29.4,24.6-37.6c7.9-8.2,13.5-12.3,16.7-12.3c2.1,0,3.2,2.7,3.2,8c0,9.2-3.7,20.4-11,33.5
		c-7.3,13.1-17.6,26.6-30.8,40.3c-0.7,2.8-1,5.5-1,8c0,4.3,0.9,7.6,2.7,10.1c1.8,2.5,4.3,3.7,7.5,3.7c1.9,0,4-0.9,6.5-2.8
		C525.2,147.3,530.8,142.3,539.6,134.2z M510.4,116.6c7.7-8,14.3-16.9,19.7-26.7c5.4-9.8,8.1-16.6,8.1-20.3c0-1.2-0.5-1.8-1.6-1.8
		c-2.5,0-6.8,5.1-12.9,15.3C517.6,93.3,513.2,104.5,510.4,116.6z"/>
</g>
</svg>
